<svg width="816" height="816" xmlns="http://www.w3.org/2000/svg">
  <g stroke="null" clip-path="url(#a)">
    <path fill="#c1b581" d="M371.997 721.815c27.223 0 29.7-25.056 29.804-32.655V126.912c-.104-7.671-2.592-32.727-29.804-32.727-1.824 0-3.732.104-5.67.311C209.75 115.23 91.667 249.994 91.667 408c0 157.954 118.032 292.719 274.442 313.462 2.073.239 4.043.353 5.888.353M408 812.263C185.089 812.263 3.737 630.9 3.737 408 3.737 185.089 185.09 3.737 408 3.737S812.263 185.09 812.263 408c0 222.9-181.352 404.263-404.263 404.263"/>
  </g>
</svg>
